<svg width="290" height="42" viewBox="0 0 290 42" fill="none" xmlns="http://www.w3.org/2000/svg">
<path d="M15.5072 37.032H7.12322L5.77922 41H0.0512151L8.17922 18.536H14.5152L22.6432 41H16.8512L15.5072 37.032ZM14.0992 32.808L11.3152 24.584L8.56322 32.808H14.0992ZM30.589 26.12C31.229 25.1387 32.029 24.3707 32.989 23.816C33.949 23.24 35.0156 22.952 36.189 22.952V28.744H34.685C33.3196 28.744 32.2956 29.0427 31.613 29.64C30.9303 30.216 30.589 31.24 30.589 32.712V41H25.117V23.144H30.589V26.12ZM61.5885 22.952C63.8071 22.952 65.5671 23.624 66.8685 24.968C68.1911 26.312 68.8525 28.1787 68.8525 30.568V41H63.4125V31.304C63.4125 30.152 63.1031 29.2667 62.4845 28.648C61.8871 28.008 61.0551 27.688 59.9885 27.688C58.9218 27.688 58.0791 28.008 57.4605 28.648C56.8631 29.2667 56.5645 30.152 56.5645 31.304V41H51.1245V31.304C51.1245 30.152 50.8151 29.2667 50.1965 28.648C49.5991 28.008 48.7671 27.688 47.7005 27.688C46.6338 27.688 45.7911 28.008 45.1725 28.648C44.5751 29.2667 44.2765 30.152 44.2765 31.304V41H38.8045V23.144H44.2765V25.384C44.8311 24.6373 45.5565 24.0507 46.4525 23.624C47.3485 23.176 48.3618 22.952 49.4925 22.952C50.8365 22.952 52.0311 23.24 53.0765 23.816C54.1431 24.392 54.9751 25.2133 55.5725 26.28C56.1911 25.2987 57.0338 24.4987 58.1005 23.88C59.1671 23.2613 60.3298 22.952 61.5885 22.952ZM71.5915 32.04C71.5915 30.2053 71.9328 28.5947 72.6155 27.208C73.3195 25.8213 74.2688 24.7547 75.4635 24.008C76.6581 23.2613 77.9915 22.888 79.4635 22.888C80.7221 22.888 81.8208 23.144 82.7595 23.656C83.7195 24.168 84.4555 24.84 84.9675 25.672V23.144H90.4395V41H84.9675V38.472C84.4341 39.304 83.6875 39.976 82.7275 40.488C81.7888 41 80.6901 41.256 79.4315 41.256C77.9808 41.256 76.6581 40.8827 75.4635 40.136C74.2688 39.368 73.3195 38.2907 72.6155 36.904C71.9328 35.496 71.5915 33.8747 71.5915 32.04ZM84.9675 32.072C84.9675 30.7067 84.5835 29.6293 83.8155 28.84C83.0688 28.0507 82.1515 27.656 81.0635 27.656C79.9755 27.656 79.0475 28.0507 78.2795 28.84C77.5328 29.608 77.1595 30.6747 77.1595 32.04C77.1595 33.4053 77.5328 34.4933 78.2795 35.304C79.0475 36.0933 79.9755 36.488 81.0635 36.488C82.1515 36.488 83.0688 36.0933 83.8155 35.304C84.5835 34.5147 84.9675 33.4373 84.9675 32.072ZM99.5182 36.488H107.262V41H93.4062V36.648L100.83 27.656H93.4702V23.144H107.102V27.496L99.5182 36.488ZM127.105 31.784C127.105 32.296 127.073 32.8293 127.009 33.384H114.625C114.711 34.4933 115.063 35.3467 115.681 35.944C116.321 36.52 117.1 36.808 118.017 36.808C119.383 36.808 120.332 36.232 120.865 35.08H126.689C126.391 36.2533 125.847 37.3093 125.057 38.248C124.289 39.1867 123.319 39.9227 122.145 40.456C120.972 40.9893 119.66 41.256 118.209 41.256C116.46 41.256 114.903 40.8827 113.537 40.136C112.172 39.3893 111.105 38.3227 110.337 36.936C109.569 35.5493 109.185 33.928 109.185 32.072C109.185 30.216 109.559 28.5947 110.305 27.208C111.073 25.8213 112.14 24.7547 113.505 24.008C114.871 23.2613 116.439 22.888 118.209 22.888C119.937 22.888 121.473 23.2507 122.817 23.976C124.161 24.7013 125.207 25.736 125.953 27.08C126.721 28.424 127.105 29.992 127.105 31.784ZM121.505 30.344C121.505 29.4053 121.185 28.6587 120.545 28.104C119.905 27.5493 119.105 27.272 118.145 27.272C117.228 27.272 116.449 27.5387 115.809 28.072C115.191 28.6053 114.807 29.3627 114.657 30.344H121.505ZM121.889 18.568L114.177 21.8V18.024L121.889 14.312V18.568ZM152.776 22.952C154.995 22.952 156.755 23.624 158.056 24.968C159.379 26.312 160.04 28.1787 160.04 30.568V41H154.6V31.304C154.6 30.152 154.291 29.2667 153.672 28.648C153.075 28.008 152.243 27.688 151.176 27.688C150.109 27.688 149.267 28.008 148.648 28.648C148.051 29.2667 147.752 30.152 147.752 31.304V41H142.312V31.304C142.312 30.152 142.003 29.2667 141.384 28.648C140.787 28.008 139.955 27.688 138.888 27.688C137.821 27.688 136.979 28.008 136.36 28.648C135.763 29.2667 135.464 30.152 135.464 31.304V41H129.992V23.144H135.464V25.384C136.019 24.6373 136.744 24.0507 137.64 23.624C138.536 23.176 139.549 22.952 140.68 22.952C142.024 22.952 143.219 23.24 144.264 23.816C145.331 24.392 146.163 25.2133 146.76 26.28C147.379 25.2987 148.221 24.4987 149.288 23.88C150.355 23.2613 151.517 22.952 152.776 22.952ZM167.563 41.32C166.363 41.32 165.376 40.9733 164.603 40.28C163.856 39.56 163.483 38.68 163.483 37.64C163.483 36.5733 163.856 35.68 164.603 34.96C165.376 34.24 166.363 33.88 167.563 33.88C168.736 33.88 169.696 34.24 170.443 34.96C171.216 35.68 171.603 36.5733 171.603 37.64C171.603 38.68 171.216 39.56 170.443 40.28C169.696 40.9733 168.736 41.32 167.563 41.32Z" fill="white"/>
<path d="M182.42 41.256C180.863 41.256 179.476 40.9893 178.26 40.456C177.044 39.9227 176.084 39.1973 175.38 38.28C174.676 37.3413 174.281 36.296 174.196 35.144H179.604C179.668 35.7627 179.956 36.264 180.468 36.648C180.98 37.032 181.609 37.224 182.356 37.224C183.039 37.224 183.561 37.096 183.924 36.84C184.308 36.5627 184.5 36.2107 184.5 35.784C184.5 35.272 184.233 34.8987 183.7 34.664C183.167 34.408 182.303 34.1307 181.108 33.832C179.828 33.5333 178.761 33.224 177.908 32.904C177.055 32.5627 176.319 32.04 175.7 31.336C175.081 30.6107 174.772 29.64 174.772 28.424C174.772 27.4 175.049 26.472 175.604 25.64C176.18 24.7867 177.012 24.1147 178.1 23.624C179.209 23.1333 180.521 22.888 182.036 22.888C184.276 22.888 186.036 23.4427 187.316 24.552C188.617 25.6613 189.364 27.1333 189.556 28.968H184.5C184.415 28.3493 184.137 27.8587 183.668 27.496C183.22 27.1333 182.623 26.952 181.876 26.952C181.236 26.952 180.745 27.08 180.404 27.336C180.063 27.5707 179.892 27.9013 179.892 28.328C179.892 28.84 180.159 29.224 180.692 29.48C181.247 29.736 182.1 29.992 183.252 30.248C184.575 30.5893 185.652 30.9307 186.484 31.272C187.316 31.592 188.041 32.1253 188.66 32.872C189.3 33.5973 189.631 34.5787 189.652 35.816C189.652 36.8613 189.353 37.8 188.756 38.632C188.18 39.4427 187.337 40.0827 186.228 40.552C185.14 41.0213 183.871 41.256 182.42 41.256ZM209.832 31.784C209.832 32.296 209.8 32.8293 209.736 33.384H197.352C197.437 34.4933 197.789 35.3467 198.408 35.944C199.048 36.52 199.826 36.808 200.744 36.808C202.109 36.808 203.058 36.232 203.592 35.08H209.416C209.117 36.2533 208.573 37.3093 207.784 38.248C207.016 39.1867 206.045 39.9227 204.872 40.456C203.698 40.9893 202.386 41.256 200.936 41.256C199.186 41.256 197.629 40.8827 196.264 40.136C194.898 39.3893 193.832 38.3227 193.064 36.936C192.296 35.5493 191.912 33.928 191.912 32.072C191.912 30.216 192.285 28.5947 193.032 27.208C193.8 25.8213 194.866 24.7547 196.232 24.008C197.597 23.2613 199.165 22.888 200.936 22.888C202.664 22.888 204.2 23.2507 205.544 23.976C206.888 24.7013 207.933 25.736 208.68 27.08C209.448 28.424 209.832 29.992 209.832 31.784ZM204.232 30.344C204.232 29.4053 203.912 28.6587 203.272 28.104C202.632 27.5493 201.832 27.272 200.872 27.272C199.954 27.272 199.176 27.5387 198.536 28.072C197.917 28.6053 197.533 29.3627 197.384 30.344H204.232ZM230.351 23.144V41H224.879V38.568C224.324 39.3573 223.567 39.9973 222.607 40.488C221.668 40.9573 220.623 41.192 219.471 41.192C218.105 41.192 216.9 40.8933 215.855 40.296C214.809 39.6773 213.999 38.792 213.423 37.64C212.847 36.488 212.559 35.1333 212.559 33.576V23.144H217.999V32.84C217.999 34.0347 218.308 34.9627 218.927 35.624C219.545 36.2853 220.377 36.616 221.423 36.616C222.489 36.616 223.332 36.2853 223.951 35.624C224.569 34.9627 224.879 34.0347 224.879 32.84V23.144H230.351ZM244.009 34.28H258.505V41H234.697V34.76L249.097 14.024H234.697V7.304H258.505V13.544L244.009 34.28ZM289.115 27.176C289.115 27.944 289.067 28.744 288.971 29.576H270.395C270.523 31.24 271.051 32.52 271.979 33.416C272.939 34.28 274.107 34.712 275.483 34.712C277.531 34.712 278.955 33.848 279.755 32.12H288.491C288.043 33.88 287.227 35.464 286.043 36.872C284.891 38.28 283.435 39.384 281.675 40.184C279.915 40.984 277.947 41.384 275.771 41.384C273.147 41.384 270.811 40.824 268.763 39.704C266.715 38.584 265.115 36.984 263.963 34.904C262.811 32.824 262.235 30.392 262.235 27.608C262.235 24.824 262.795 22.392 263.915 20.312C265.067 18.232 266.667 16.632 268.715 15.512C270.763 14.392 273.115 13.832 275.771 13.832C278.363 13.832 280.667 14.376 282.683 15.464C284.699 16.552 286.267 18.104 287.387 20.12C288.539 22.136 289.115 24.488 289.115 27.176ZM280.715 25.016C280.715 23.608 280.235 22.488 279.275 21.656C278.315 20.824 277.115 20.408 275.675 20.408C274.299 20.408 273.131 20.808 272.171 21.608C271.243 22.408 270.667 23.544 270.443 25.016H280.715ZM281.291 7.352L269.723 12.2V6.536L281.291 0.967998V7.352Z" fill="#F13D3C"/>
</svg>
