<svg width="277" height="42" viewBox="0 0 277 42" fill="none" xmlns="http://www.w3.org/2000/svg">
<path d="M15.6635 37.032H7.27947L5.93547 41H0.207465L8.33547 18.536H14.6715L22.7995 41H17.0075L15.6635 37.032ZM14.2555 32.808L11.4715 24.584L8.71947 32.808H14.2555ZM30.7452 26.12C31.3852 25.1387 32.1852 24.3707 33.1452 23.816C34.1052 23.24 35.1719 22.952 36.3452 22.952V28.744H34.8412C33.4759 28.744 32.4519 29.0427 31.7692 29.64C31.0865 30.216 30.7452 31.24 30.7452 32.712V41H25.2732V23.144H30.7452V26.12ZM61.7447 22.952C63.9634 22.952 65.7234 23.624 67.0247 24.968C68.3474 26.312 69.0087 28.1787 69.0087 30.568V41H63.5687V31.304C63.5687 30.152 63.2594 29.2667 62.6407 28.648C62.0434 28.008 61.2114 27.688 60.1447 27.688C59.078 27.688 58.2354 28.008 57.6167 28.648C57.0194 29.2667 56.7207 30.152 56.7207 31.304V41H51.2807V31.304C51.2807 30.152 50.9714 29.2667 50.3527 28.648C49.7554 28.008 48.9234 27.688 47.8567 27.688C46.79 27.688 45.9474 28.008 45.3287 28.648C44.7314 29.2667 44.4327 30.152 44.4327 31.304V41H38.9607V23.144H44.4327V25.384C44.9874 24.6373 45.7127 24.0507 46.6087 23.624C47.5047 23.176 48.518 22.952 49.6487 22.952C50.9927 22.952 52.1874 23.24 53.2327 23.816C54.2994 24.392 55.1314 25.2133 55.7287 26.28C56.3474 25.2987 57.19 24.4987 58.2567 23.88C59.3234 23.2613 60.486 22.952 61.7447 22.952ZM71.7477 32.04C71.7477 30.2053 72.089 28.5947 72.7717 27.208C73.4757 25.8213 74.425 24.7547 75.6197 24.008C76.8144 23.2613 78.1477 22.888 79.6197 22.888C80.8784 22.888 81.977 23.144 82.9157 23.656C83.8757 24.168 84.6117 24.84 85.1237 25.672V23.144H90.5957V41H85.1237V38.472C84.5904 39.304 83.8437 39.976 82.8837 40.488C81.945 41 80.8464 41.256 79.5877 41.256C78.137 41.256 76.8144 40.8827 75.6197 40.136C74.425 39.368 73.4757 38.2907 72.7717 36.904C72.089 35.496 71.7477 33.8747 71.7477 32.04ZM85.1237 32.072C85.1237 30.7067 84.7397 29.6293 83.9717 28.84C83.225 28.0507 82.3077 27.656 81.2197 27.656C80.1317 27.656 79.2037 28.0507 78.4357 28.84C77.689 29.608 77.3157 30.6747 77.3157 32.04C77.3157 33.4053 77.689 34.4933 78.4357 35.304C79.2037 36.0933 80.1317 36.488 81.2197 36.488C82.3077 36.488 83.225 36.0933 83.9717 35.304C84.7397 34.5147 85.1237 33.4373 85.1237 32.072ZM99.6745 36.488H107.418V41H93.5625V36.648L100.986 27.656H93.6265V23.144H107.258V27.496L99.6745 36.488ZM127.261 31.784C127.261 32.296 127.229 32.8293 127.165 33.384H114.781C114.867 34.4933 115.219 35.3467 115.837 35.944C116.477 36.52 117.256 36.808 118.173 36.808C119.539 36.808 120.488 36.232 121.021 35.08H126.845C126.547 36.2533 126.003 37.3093 125.213 38.248C124.445 39.1867 123.475 39.9227 122.301 40.456C121.128 40.9893 119.816 41.256 118.365 41.256C116.616 41.256 115.059 40.8827 113.693 40.136C112.328 39.3893 111.261 38.3227 110.493 36.936C109.725 35.5493 109.341 33.928 109.341 32.072C109.341 30.216 109.715 28.5947 110.461 27.208C111.229 25.8213 112.296 24.7547 113.661 24.008C115.027 23.2613 116.595 22.888 118.365 22.888C120.093 22.888 121.629 23.2507 122.973 23.976C124.317 24.7013 125.363 25.736 126.109 27.08C126.877 28.424 127.261 29.992 127.261 31.784ZM121.661 30.344C121.661 29.4053 121.341 28.6587 120.701 28.104C120.061 27.5493 119.261 27.272 118.301 27.272C117.384 27.272 116.605 27.5387 115.965 28.072C115.347 28.6053 114.963 29.3627 114.813 30.344H121.661ZM122.045 18.568L114.333 21.8V18.024L122.045 14.312V18.568ZM141.028 22.952C143.119 22.952 144.783 23.6347 146.02 25C147.279 26.344 147.908 28.2 147.908 30.568V41H142.468V31.304C142.468 30.1093 142.159 29.1813 141.54 28.52C140.922 27.8587 140.09 27.528 139.044 27.528C137.999 27.528 137.167 27.8587 136.548 28.52C135.93 29.1813 135.62 30.1093 135.62 31.304V41H130.148V23.144H135.62V25.512C136.175 24.7227 136.922 24.104 137.86 23.656C138.799 23.1867 139.855 22.952 141.028 22.952ZM155.407 41.32C154.207 41.32 153.22 40.9733 152.447 40.28C151.7 39.56 151.327 38.68 151.327 37.64C151.327 36.5733 151.7 35.68 152.447 34.96C153.22 34.24 154.207 33.88 155.407 33.88C156.58 33.88 157.54 34.24 158.287 34.96C159.06 35.68 159.447 36.5733 159.447 37.64C159.447 38.68 159.06 39.56 158.287 40.28C157.54 40.9733 156.58 41.32 155.407 41.32Z" fill="white"/>
<path d="M170.264 41.256C168.706 41.256 167.32 40.9893 166.104 40.456C164.888 39.9227 163.928 39.1973 163.224 38.28C162.52 37.3413 162.125 36.296 162.04 35.144H167.448C167.512 35.7627 167.8 36.264 168.312 36.648C168.824 37.032 169.453 37.224 170.2 37.224C170.882 37.224 171.405 37.096 171.768 36.84C172.152 36.5627 172.344 36.2107 172.344 35.784C172.344 35.272 172.077 34.8987 171.544 34.664C171.01 34.408 170.146 34.1307 168.952 33.832C167.672 33.5333 166.605 33.224 165.752 32.904C164.898 32.5627 164.162 32.04 163.544 31.336C162.925 30.6107 162.616 29.64 162.616 28.424C162.616 27.4 162.893 26.472 163.448 25.64C164.024 24.7867 164.856 24.1147 165.944 23.624C167.053 23.1333 168.365 22.888 169.88 22.888C172.12 22.888 173.88 23.4427 175.16 24.552C176.461 25.6613 177.208 27.1333 177.4 28.968H172.344C172.258 28.3493 171.981 27.8587 171.512 27.496C171.064 27.1333 170.466 26.952 169.72 26.952C169.08 26.952 168.589 27.08 168.248 27.336C167.906 27.5707 167.736 27.9013 167.736 28.328C167.736 28.84 168.002 29.224 168.536 29.48C169.09 29.736 169.944 29.992 171.096 30.248C172.418 30.5893 173.496 30.9307 174.328 31.272C175.16 31.592 175.885 32.1253 176.504 32.872C177.144 33.5973 177.474 34.5787 177.496 35.816C177.496 36.8613 177.197 37.8 176.6 38.632C176.024 39.4427 175.181 40.0827 174.072 40.552C172.984 41.0213 171.714 41.256 170.264 41.256ZM197.676 31.784C197.676 32.296 197.644 32.8293 197.58 33.384H185.196C185.281 34.4933 185.633 35.3467 186.252 35.944C186.892 36.52 187.67 36.808 188.588 36.808C189.953 36.808 190.902 36.232 191.436 35.08H197.26C196.961 36.2533 196.417 37.3093 195.628 38.248C194.86 39.1867 193.889 39.9227 192.716 40.456C191.542 40.9893 190.23 41.256 188.78 41.256C187.03 41.256 185.473 40.8827 184.108 40.136C182.742 39.3893 181.676 38.3227 180.908 36.936C180.14 35.5493 179.756 33.928 179.756 32.072C179.756 30.216 180.129 28.5947 180.876 27.208C181.644 25.8213 182.71 24.7547 184.076 24.008C185.441 23.2613 187.009 22.888 188.78 22.888C190.508 22.888 192.044 23.2507 193.388 23.976C194.732 24.7013 195.777 25.736 196.524 27.08C197.292 28.424 197.676 29.992 197.676 31.784ZM192.076 30.344C192.076 29.4053 191.756 28.6587 191.116 28.104C190.476 27.5493 189.676 27.272 188.716 27.272C187.798 27.272 187.02 27.5387 186.38 28.072C185.761 28.6053 185.377 29.3627 185.228 30.344H192.076ZM218.194 23.144V41H212.722V38.568C212.168 39.3573 211.41 39.9973 210.45 40.488C209.512 40.9573 208.466 41.192 207.314 41.192C205.949 41.192 204.744 40.8933 203.698 40.296C202.653 39.6773 201.842 38.792 201.266 37.64C200.69 36.488 200.402 35.1333 200.402 33.576V23.144H205.842V32.84C205.842 34.0347 206.152 34.9627 206.77 35.624C207.389 36.2853 208.221 36.616 209.266 36.616C210.333 36.616 211.176 36.2853 211.794 35.624C212.413 34.9627 212.722 34.0347 212.722 32.84V23.144H218.194ZM231.853 34.28H246.349V41H222.541V34.76L236.941 14.024H222.541V7.304H246.349V13.544L231.853 34.28ZM276.959 27.176C276.959 27.944 276.911 28.744 276.815 29.576H258.239C258.367 31.24 258.895 32.52 259.823 33.416C260.783 34.28 261.951 34.712 263.327 34.712C265.375 34.712 266.799 33.848 267.599 32.12H276.335C275.887 33.88 275.071 35.464 273.887 36.872C272.735 38.28 271.279 39.384 269.519 40.184C267.759 40.984 265.791 41.384 263.615 41.384C260.991 41.384 258.655 40.824 256.607 39.704C254.559 38.584 252.959 36.984 251.807 34.904C250.655 32.824 250.079 30.392 250.079 27.608C250.079 24.824 250.639 22.392 251.759 20.312C252.911 18.232 254.511 16.632 256.559 15.512C258.607 14.392 260.959 13.832 263.615 13.832C266.207 13.832 268.511 14.376 270.527 15.464C272.543 16.552 274.111 18.104 275.231 20.12C276.383 22.136 276.959 24.488 276.959 27.176ZM268.559 25.016C268.559 23.608 268.079 22.488 267.119 21.656C266.159 20.824 264.959 20.408 263.519 20.408C262.143 20.408 260.975 20.808 260.015 21.608C259.087 22.408 258.511 23.544 258.287 25.016H268.559ZM269.135 7.352L257.567 12.2V6.536L269.135 0.967998V7.352Z" fill="#F13D3C"/>
</svg>
