<svg width="293" height="63" viewBox="0 0 293 63" fill="none" xmlns="http://www.w3.org/2000/svg">
<path d="M16.6516 43.032H8.26759L6.92359 47H1.19559L9.32359 24.536H15.6596L23.7876 47H17.9956L16.6516 43.032ZM15.2436 38.808L12.4596 30.584L9.70759 38.808H15.2436ZM31.7333 32.12C32.3733 31.1387 33.1733 30.3707 34.1333 29.816C35.0933 29.24 36.16 28.952 37.3333 28.952V34.744H35.8293C34.464 34.744 33.44 35.0427 32.7573 35.64C32.0747 36.216 31.7333 37.24 31.7333 38.712V47H26.2613V29.144H31.7333V32.12ZM62.7328 28.952C64.9515 28.952 66.7115 29.624 68.0128 30.968C69.3355 32.312 69.9968 34.1787 69.9968 36.568V47H64.5568V37.304C64.5568 36.152 64.2475 35.2667 63.6288 34.648C63.0315 34.008 62.1995 33.688 61.1328 33.688C60.0662 33.688 59.2235 34.008 58.6048 34.648C58.0075 35.2667 57.7088 36.152 57.7088 37.304V47H52.2688V37.304C52.2688 36.152 51.9595 35.2667 51.3408 34.648C50.7435 34.008 49.9115 33.688 48.8448 33.688C47.7782 33.688 46.9355 34.008 46.3168 34.648C45.7195 35.2667 45.4208 36.152 45.4208 37.304V47H39.9488V29.144H45.4208V31.384C45.9755 30.6373 46.7008 30.0507 47.5968 29.624C48.4928 29.176 49.5062 28.952 50.6368 28.952C51.9808 28.952 53.1755 29.24 54.2208 29.816C55.2875 30.392 56.1195 31.2133 56.7168 32.28C57.3355 31.2987 58.1782 30.4987 59.2448 29.88C60.3115 29.2613 61.4742 28.952 62.7328 28.952ZM72.7358 38.04C72.7358 36.2053 73.0772 34.5947 73.7598 33.208C74.4638 31.8213 75.4132 30.7547 76.6078 30.008C77.8025 29.2613 79.1358 28.888 80.6078 28.888C81.8665 28.888 82.9652 29.144 83.9038 29.656C84.8638 30.168 85.5998 30.84 86.1118 31.672V29.144H91.5838V47H86.1118V44.472C85.5785 45.304 84.8318 45.976 83.8718 46.488C82.9332 47 81.8345 47.256 80.5758 47.256C79.1252 47.256 77.8025 46.8827 76.6078 46.136C75.4132 45.368 74.4638 44.2907 73.7598 42.904C73.0772 41.496 72.7358 39.8747 72.7358 38.04ZM86.1118 38.072C86.1118 36.7067 85.7278 35.6293 84.9598 34.84C84.2132 34.0507 83.2958 33.656 82.2078 33.656C81.1198 33.656 80.1918 34.0507 79.4238 34.84C78.6772 35.608 78.3038 36.6747 78.3038 38.04C78.3038 39.4053 78.6772 40.4933 79.4238 41.304C80.1918 42.0933 81.1198 42.488 82.2078 42.488C83.2958 42.488 84.2132 42.0933 84.9598 41.304C85.7278 40.5147 86.1118 39.4373 86.1118 38.072ZM100.663 42.488H108.407V47H94.5506V42.648L101.975 33.656H94.6146V29.144H108.247V33.496L100.663 42.488ZM128.25 37.784C128.25 38.296 128.218 38.8293 128.154 39.384H115.77C115.855 40.4933 116.207 41.3467 116.826 41.944C117.466 42.52 118.244 42.808 119.162 42.808C120.527 42.808 121.476 42.232 122.01 41.08H127.834C127.535 42.2533 126.991 43.3093 126.202 44.248C125.434 45.1867 124.463 45.9227 123.29 46.456C122.116 46.9893 120.804 47.256 119.354 47.256C117.604 47.256 116.047 46.8827 114.682 46.136C113.316 45.3893 112.25 44.3227 111.482 42.936C110.714 41.5493 110.33 39.928 110.33 38.072C110.33 36.216 110.703 34.5947 111.45 33.208C112.218 31.8213 113.284 30.7547 114.65 30.008C116.015 29.2613 117.583 28.888 119.354 28.888C121.082 28.888 122.618 29.2507 123.962 29.976C125.306 30.7013 126.351 31.736 127.098 33.08C127.866 34.424 128.25 35.992 128.25 37.784ZM122.65 36.344C122.65 35.4053 122.33 34.6587 121.69 34.104C121.05 33.5493 120.25 33.272 119.29 33.272C118.372 33.272 117.594 33.5387 116.954 34.072C116.335 34.6053 115.951 35.3627 115.802 36.344H122.65ZM123.034 24.568L115.322 27.8V24.024L123.034 20.312V24.568ZM153.92 28.952C156.139 28.952 157.899 29.624 159.2 30.968C160.523 32.312 161.184 34.1787 161.184 36.568V47H155.744V37.304C155.744 36.152 155.435 35.2667 154.816 34.648C154.219 34.008 153.387 33.688 152.32 33.688C151.254 33.688 150.411 34.008 149.792 34.648C149.195 35.2667 148.896 36.152 148.896 37.304V47H143.456V37.304C143.456 36.152 143.147 35.2667 142.528 34.648C141.931 34.008 141.099 33.688 140.032 33.688C138.966 33.688 138.123 34.008 137.504 34.648C136.907 35.2667 136.608 36.152 136.608 37.304V47H131.136V29.144H136.608V31.384C137.163 30.6373 137.888 30.0507 138.784 29.624C139.68 29.176 140.694 28.952 141.824 28.952C143.168 28.952 144.363 29.24 145.408 29.816C146.475 30.392 147.307 31.2133 147.904 32.28C148.523 31.2987 149.366 30.4987 150.432 29.88C151.499 29.2613 152.662 28.952 153.92 28.952ZM168.707 47.32C167.507 47.32 166.521 46.9733 165.747 46.28C165.001 45.56 164.627 44.68 164.627 43.64C164.627 42.5733 165.001 41.68 165.747 40.96C166.521 40.24 167.507 39.88 168.707 39.88C169.881 39.88 170.841 40.24 171.587 40.96C172.361 41.68 172.747 42.5733 172.747 43.64C172.747 44.68 172.361 45.56 171.587 46.28C170.841 46.9733 169.881 47.32 168.707 47.32Z" fill="white"/>
<path d="M16.6516 43.032L16.7463 42.9999L16.7233 42.932H16.6516V43.032ZM8.26759 43.032V42.932H8.19588L8.17288 42.9999L8.26759 43.032ZM6.92359 47V47.1H6.9953L7.01831 47.0321L6.92359 47ZM1.19559 47L1.10156 46.966L1.05307 47.1H1.19559V47ZM9.32359 24.536V24.436H9.25343L9.22956 24.502L9.32359 24.536ZM15.6596 24.536L15.7536 24.502L15.7298 24.436H15.6596V24.536ZM23.7876 47V47.1H23.9301L23.8816 46.966L23.7876 47ZM17.9956 47L17.9009 47.0321L17.9239 47.1H17.9956V47ZM15.2436 38.808V38.908H15.383L15.3383 38.7759L15.2436 38.808ZM12.4596 30.584L12.5543 30.5519L12.459 30.2705L12.3648 30.5523L12.4596 30.584ZM9.70759 38.808L9.61276 38.7763L9.56868 38.908H9.70759V38.808ZM16.6516 42.932H8.26759V43.132H16.6516V42.932ZM8.17288 42.9999L6.82888 46.9679L7.01831 47.0321L8.36231 43.0641L8.17288 42.9999ZM6.92359 46.9H1.19559V47.1H6.92359V46.9ZM1.28963 47.034L9.41763 24.57L9.22956 24.502L1.10156 46.966L1.28963 47.034ZM9.32359 24.636H15.6596V24.436H9.32359V24.636ZM15.5656 24.57L23.6936 47.034L23.8816 46.966L15.7536 24.502L15.5656 24.57ZM23.7876 46.9H17.9956V47.1H23.7876V46.9ZM18.0903 46.9679L16.7463 42.9999L16.5569 43.0641L17.9009 47.0321L18.0903 46.9679ZM15.3383 38.7759L12.5543 30.5519L12.3649 30.6161L15.1489 38.8401L15.3383 38.7759ZM12.3648 30.5523L9.61276 38.7763L9.80243 38.8397L12.5544 30.6157L12.3648 30.5523ZM9.70759 38.908H15.2436V38.708H9.70759V38.908ZM31.7333 32.12H31.6333V32.4564L31.8171 32.1746L31.7333 32.12ZM34.1333 29.816L34.1834 29.9026L34.1848 29.9017L34.1333 29.816ZM37.3333 28.952H37.4333V28.852H37.3333V28.952ZM37.3333 34.744V34.844H37.4333V34.744H37.3333ZM32.7573 35.64L32.8218 35.7164L32.8232 35.7153L32.7573 35.64ZM31.7333 47V47.1H31.8333V47H31.7333ZM26.2613 47H26.1613V47.1H26.2613V47ZM26.2613 29.144V29.044H26.1613V29.144H26.2613ZM31.7333 29.144H31.8333V29.044H31.7333V29.144ZM31.8171 32.1746C32.449 31.2057 33.2377 30.449 34.1834 29.9026L34.0833 29.7294C33.1089 30.2924 32.2977 31.0717 31.6496 32.0654L31.8171 32.1746ZM34.1848 29.9017C35.1285 29.3355 36.1772 29.052 37.3333 29.052V28.852C36.1428 28.852 35.0582 29.1445 34.0819 29.7303L34.1848 29.9017ZM37.2333 28.952V34.744H37.4333V28.952H37.2333ZM37.3333 34.644H35.8293V34.844H37.3333V34.644ZM35.8293 34.644C34.4516 34.644 33.3997 34.9451 32.6915 35.5647L32.8232 35.7153C33.4803 35.1402 34.4764 34.844 35.8293 34.844V34.644ZM32.6929 35.5636C31.9765 36.168 31.6333 37.2292 31.6333 38.712H31.8333C31.8333 37.2508 32.1728 36.264 32.8218 35.7164L32.6929 35.5636ZM31.6333 38.712V47H31.8333V38.712H31.6333ZM31.7333 46.9H26.2613V47.1H31.7333V46.9ZM26.3613 47V29.144H26.1613V47H26.3613ZM26.2613 29.244H31.7333V29.044H26.2613V29.244ZM31.6333 29.144V32.12H31.8333V29.144H31.6333ZM68.0128 30.968L67.941 31.0376L67.9416 31.0381L68.0128 30.968ZM69.9968 47V47.1H70.0968V47H69.9968ZM64.5568 47H64.4568V47.1H64.5568V47ZM63.6288 34.648L63.5557 34.7163L63.5581 34.7187L63.6288 34.648ZM58.6048 34.648L58.5329 34.5785L58.5329 34.5785L58.6048 34.648ZM57.7088 47V47.1H57.8088V47H57.7088ZM52.2688 47H52.1688V47.1H52.2688V47ZM51.3408 34.648L51.2677 34.7163L51.2701 34.7187L51.3408 34.648ZM46.3168 34.648L46.2449 34.5785L46.2449 34.5785L46.3168 34.648ZM45.4208 47V47.1H45.5208V47H45.4208ZM39.9488 47H39.8488V47.1H39.9488V47ZM39.9488 29.144V29.044H39.8488V29.144H39.9488ZM45.4208 29.144H45.5208V29.044H45.4208V29.144ZM45.4208 31.384H45.3208V31.6863L45.5011 31.4436L45.4208 31.384ZM47.5968 29.624L47.6398 29.7143L47.6416 29.7134L47.5968 29.624ZM54.2208 29.816L54.1726 29.9036L54.1733 29.904L54.2208 29.816ZM56.7168 32.28L56.6296 32.3289L56.7118 32.4756L56.8014 32.3333L56.7168 32.28ZM62.7328 29.052C64.9299 29.052 66.662 29.7166 67.941 31.0376L68.0847 30.8984C66.761 29.5314 64.9732 28.852 62.7328 28.852V29.052ZM67.9416 31.0381C69.2412 32.3588 69.8968 34.1976 69.8968 36.568H70.0968C70.0968 34.1598 69.4298 32.2652 68.0841 30.8979L67.9416 31.0381ZM69.8968 36.568V47H70.0968V36.568H69.8968ZM69.9968 46.9H64.5568V47.1H69.9968V46.9ZM64.6568 47V37.304H64.4568V47H64.6568ZM64.6568 37.304C64.6568 36.1342 64.3424 35.2201 63.6996 34.5773L63.5581 34.7187C64.1527 35.3132 64.4568 36.1698 64.4568 37.304H64.6568ZM63.702 34.5798C63.0817 33.9152 62.2207 33.588 61.1328 33.588V33.788C62.1783 33.788 62.9814 34.1008 63.5557 34.7162L63.702 34.5798ZM61.1328 33.588C60.0449 33.588 59.1741 33.9152 58.5329 34.5785L58.6767 34.7175C59.2729 34.1008 60.0875 33.788 61.1328 33.788V33.588ZM58.5329 34.5785C57.9121 35.2215 57.6088 36.1351 57.6088 37.304H57.8088C57.8088 36.1689 58.1029 35.3119 58.6768 34.7175L58.5329 34.5785ZM57.6088 37.304V47H57.8088V37.304H57.6088ZM57.7088 46.9H52.2688V47.1H57.7088V46.9ZM52.3688 47V37.304H52.1688V47H52.3688ZM52.3688 37.304C52.3688 36.1342 52.0544 35.2201 51.4116 34.5773L51.2701 34.7187C51.8647 35.3132 52.1688 36.1698 52.1688 37.304H52.3688ZM51.4139 34.5798C50.7937 33.9152 49.9327 33.588 48.8448 33.588V33.788C49.8903 33.788 50.6933 34.1008 51.2677 34.7162L51.4139 34.5798ZM48.8448 33.588C47.7569 33.588 46.8861 33.9152 46.2449 34.5785L46.3887 34.7175C46.9849 34.1008 47.7995 33.788 48.8448 33.788V33.588ZM46.2449 34.5785C45.6241 35.2215 45.3208 36.1351 45.3208 37.304H45.5208C45.5208 36.1689 45.8149 35.3119 46.3888 34.7175L46.2449 34.5785ZM45.3208 37.304V47H45.5208V37.304H45.3208ZM45.4208 46.9H39.9488V47.1H45.4208V46.9ZM40.0488 47V29.144H39.8488V47H40.0488ZM39.9488 29.244H45.4208V29.044H39.9488V29.244ZM45.3208 29.144V31.384H45.5208V29.144H45.3208ZM45.5011 31.4436C46.0454 30.7109 46.7576 30.1344 47.6398 29.7143L47.5539 29.5337C46.6441 29.9669 45.9056 30.5637 45.3406 31.3244L45.5011 31.4436ZM47.6416 29.7134C48.522 29.2732 49.5197 29.052 50.6368 29.052V28.852C49.4927 28.852 48.4637 29.0788 47.5521 29.5346L47.6416 29.7134ZM50.6368 29.052C51.9661 29.052 53.1438 29.3367 54.1726 29.9036L54.2691 29.7284C53.2072 29.1433 51.9956 28.852 50.6368 28.852V29.052ZM54.1733 29.904C55.2232 30.4709 56.0414 31.2786 56.6296 32.3289L56.8041 32.2311C56.1976 31.1481 55.3519 30.3131 54.2684 29.728L54.1733 29.904ZM56.8014 32.3333C57.4109 31.3665 58.2414 30.5776 59.295 29.9665L59.1947 29.7935C58.1149 30.4197 57.2601 31.2308 56.6323 32.2267L56.8014 32.3333ZM59.295 29.9665C60.3461 29.3569 61.4914 29.052 62.7328 29.052V28.852C61.4569 28.852 60.2769 29.1658 59.1947 29.7935L59.295 29.9665ZM73.7598 33.208L73.6707 33.1627L73.6701 33.1638L73.7598 33.208ZM76.6078 30.008L76.6608 30.0928L76.6608 30.0928L76.6078 30.008ZM83.9038 29.656L83.856 29.7438L83.8568 29.7442L83.9038 29.656ZM86.1118 31.672L86.0267 31.7244L86.2118 32.0253V31.672H86.1118ZM86.1118 29.144V29.044H86.0118V29.144H86.1118ZM91.5838 29.144H91.6838V29.044H91.5838V29.144ZM91.5838 47V47.1H91.6838V47H91.5838ZM86.1118 47H86.0118V47.1H86.1118V47ZM86.1118 44.472H86.2118V44.1307L86.0277 44.418L86.1118 44.472ZM83.8718 46.488L83.8248 46.3998L83.824 46.4002L83.8718 46.488ZM76.6078 46.136L76.5538 46.2201L76.5548 46.2208L76.6078 46.136ZM73.7598 42.904L73.6698 42.9476L73.6707 42.9493L73.7598 42.904ZM84.9598 34.84L84.8872 34.9087L84.8882 34.9097L84.9598 34.84ZM79.4238 34.84L79.3522 34.7703L79.3521 34.7703L79.4238 34.84ZM79.4238 41.304L79.3503 41.3718L79.3522 41.3737L79.4238 41.304ZM84.9598 41.304L84.8882 41.2343L84.8872 41.2353L84.9598 41.304ZM72.8358 38.04C72.8358 36.2178 73.1748 34.6228 73.8496 33.2522L73.6701 33.1638C72.9795 34.5666 72.6358 36.1929 72.6358 38.04H72.8358ZM73.849 33.2533C74.5457 31.8811 75.4832 30.8288 76.6608 30.0928L76.5548 29.9232C75.3432 30.6805 74.382 31.7616 73.6707 33.1627L73.849 33.2533ZM76.6608 30.0928C77.8389 29.3565 79.1537 28.988 80.6078 28.988V28.788C79.118 28.788 77.7661 29.1661 76.5548 29.9232L76.6608 30.0928ZM80.6078 28.988C81.8527 28.988 82.9344 29.2411 83.856 29.7438L83.9517 29.5682C82.996 29.0469 81.8803 28.788 80.6078 28.788V28.988ZM83.8568 29.7442C84.803 30.2489 85.525 30.9092 86.0267 31.7244L86.197 31.6196C85.6747 30.7708 84.9247 30.0871 83.9509 29.5678L83.8568 29.7442ZM86.2118 31.672V29.144H86.0118V31.672H86.2118ZM86.1118 29.244H91.5838V29.044H86.1118V29.244ZM91.4838 29.144V47H91.6838V29.144H91.4838ZM91.5838 46.9H86.1118V47.1H91.5838V46.9ZM86.2118 47V44.472H86.0118V47H86.2118ZM86.0277 44.418C85.5045 45.2342 84.7712 45.895 83.8248 46.3998L83.9189 46.5762C84.8924 46.057 85.6525 45.3738 86.196 44.526L86.0277 44.418ZM83.824 46.4002C82.9024 46.9029 81.8207 47.156 80.5758 47.156V47.356C81.8483 47.356 82.964 47.0971 83.9197 46.5758L83.824 46.4002ZM80.5758 47.156C79.1433 47.156 77.8391 46.7876 76.6608 46.0512L76.5548 46.2208C77.7659 46.9777 79.107 47.356 80.5758 47.356V47.156ZM76.6619 46.0519C75.4836 45.2944 74.5458 44.2311 73.849 42.8587L73.6707 42.9493C74.3819 44.3502 75.3428 45.4416 76.5538 46.2201L76.6619 46.0519ZM73.8498 42.8604C73.1748 41.4681 72.8358 39.8621 72.8358 38.04H72.6358C72.6358 39.8872 72.9796 41.5239 73.6699 42.9476L73.8498 42.8604ZM86.2118 38.072C86.2118 36.6872 85.8218 35.5825 85.0315 34.7703L84.8882 34.9097C85.6339 35.6762 86.0118 36.7261 86.0118 38.072H86.2118ZM85.0325 34.7713C84.2669 33.9619 83.3233 33.556 82.2078 33.556V33.756C83.2684 33.756 84.1594 34.1394 84.8872 34.9087L85.0325 34.7713ZM82.2078 33.556C81.0925 33.556 80.1387 33.9618 79.3522 34.7703L79.4955 34.9097C80.245 34.1395 81.1472 33.756 82.2078 33.756V33.556ZM79.3521 34.7703C78.5827 35.5617 78.2038 36.6561 78.2038 38.04H78.4038C78.4038 36.6932 78.7716 35.6543 79.4955 34.9097L79.3521 34.7703ZM78.2038 38.04C78.2038 39.4242 78.5828 40.5385 79.3503 41.3717L79.4974 41.2363C78.7716 40.4482 78.4038 39.3865 78.4038 38.04H78.2038ZM79.3522 41.3737C80.1387 42.1822 81.0925 42.588 82.2078 42.588V42.388C81.1472 42.388 80.245 42.0045 79.4955 41.2343L79.3522 41.3737ZM82.2078 42.588C83.3233 42.588 84.2669 42.1821 85.0325 41.3727L84.8872 41.2353C84.1594 42.0046 83.2684 42.388 82.2078 42.388V42.588ZM85.0315 41.3737C85.8218 40.5615 86.2118 39.4568 86.2118 38.072H86.0118C86.0118 39.4179 85.6339 40.4678 84.8882 41.2343L85.0315 41.3737ZM100.663 42.488L100.586 42.4235L100.447 42.588H100.663V42.488ZM108.407 42.488H108.507V42.388H108.407V42.488ZM108.407 47V47.1H108.507V47H108.407ZM94.5506 47H94.4506V47.1H94.5506V47ZM94.5506 42.648L94.4735 42.5843L94.4506 42.6121V42.648H94.5506ZM101.975 33.656L102.052 33.7197L102.187 33.556H101.975V33.656ZM94.6146 33.656H94.5146V33.756H94.6146V33.656ZM94.6146 29.144V29.044H94.5146V29.144H94.6146ZM108.247 29.144H108.347V29.044H108.247V29.144ZM108.247 33.496L108.323 33.5605L108.347 33.5325V33.496H108.247ZM100.663 42.588H108.407V42.388H100.663V42.588ZM108.307 42.488V47H108.507V42.488H108.307ZM108.407 46.9H94.5506V47.1H108.407V46.9ZM94.6506 47V42.648H94.4506V47H94.6506ZM94.6277 42.7117L102.052 33.7197L101.897 33.5923L94.4735 42.5843L94.6277 42.7117ZM101.975 33.556H94.6146V33.756H101.975V33.556ZM94.7146 33.656V29.144H94.5146V33.656H94.7146ZM94.6146 29.244H108.247V29.044H94.6146V29.244ZM108.147 29.144V33.496H108.347V29.144H108.147ZM108.17 33.4315L100.586 42.4235L100.739 42.5525L108.323 33.5605L108.17 33.4315ZM128.154 39.384V39.484H128.243L128.253 39.3955L128.154 39.384ZM115.77 39.384V39.284H115.662L115.67 39.3917L115.77 39.384ZM116.826 41.944L116.756 42.016L116.759 42.0183L116.826 41.944ZM122.01 41.08V40.98H121.946L121.919 41.038L122.01 41.08ZM127.834 41.08L127.931 41.1047L127.962 40.98H127.834V41.08ZM126.202 44.248L126.125 44.1836L126.124 44.1847L126.202 44.248ZM123.29 46.456L123.331 46.547L123.29 46.456ZM114.682 46.136L114.634 46.2237L114.634 46.2237L114.682 46.136ZM111.482 42.936L111.569 42.8875L111.569 42.8875L111.482 42.936ZM111.45 33.208L111.362 33.1595L111.362 33.1606L111.45 33.208ZM114.65 30.008L114.698 30.0957L114.698 30.0957L114.65 30.008ZM123.962 29.976L123.914 30.064L123.914 30.064L123.962 29.976ZM127.098 33.08L127.01 33.1286L127.011 33.1296L127.098 33.08ZM122.65 36.344V36.444H122.75V36.344H122.65ZM121.69 34.104L121.755 34.0284L121.755 34.0284L121.69 34.104ZM116.954 34.072L116.89 33.9952L116.888 33.9963L116.954 34.072ZM115.802 36.344L115.703 36.329L115.685 36.444H115.802V36.344ZM123.034 24.568L123.072 24.6602L123.134 24.6345V24.568H123.034ZM115.322 27.8H115.222V27.9503L115.36 27.8922L115.322 27.8ZM115.322 24.024L115.278 23.9339L115.222 23.9612V24.024H115.322ZM123.034 20.312H123.134V20.1529L122.99 20.2219L123.034 20.312ZM128.15 37.784C128.15 38.2918 128.118 38.8213 128.054 39.3725L128.253 39.3955C128.317 38.8373 128.35 38.3002 128.35 37.784H128.15ZM128.154 39.284H115.77V39.484H128.154V39.284ZM115.67 39.3917C115.757 40.5181 116.115 41.3971 116.756 42.0159L116.895 41.8721C116.299 41.2962 115.953 40.4686 115.869 39.3763L115.67 39.3917ZM116.759 42.0183C117.418 42.612 118.221 42.908 119.162 42.908V42.708C118.267 42.708 117.513 42.428 116.892 41.8697L116.759 42.0183ZM119.162 42.908C119.858 42.908 120.456 42.7609 120.949 42.4615C121.443 42.1618 121.827 41.7134 122.1 41.122L121.919 41.038C121.659 41.5986 121.301 42.0142 120.846 42.2905C120.39 42.5671 119.83 42.708 119.162 42.708V42.908ZM122.01 41.18H127.834V40.98H122.01V41.18ZM127.737 41.0553C127.442 42.2139 126.905 43.2563 126.125 44.1836L126.278 44.3124C127.077 43.3623 127.628 42.2928 127.931 41.1047L127.737 41.0553ZM126.124 44.1847C125.367 45.1107 124.408 45.8376 123.248 46.365L123.331 46.547C124.517 46.0078 125.501 45.2626 126.279 44.3113L126.124 44.1847ZM123.248 46.365C122.089 46.8917 120.792 47.156 119.354 47.156V47.356C120.817 47.356 122.143 47.087 123.331 46.547L123.248 46.365ZM119.354 47.156C117.619 47.156 116.078 46.7859 114.73 46.0483L114.634 46.2237C116.015 46.9794 117.59 47.356 119.354 47.356V47.156ZM114.73 46.0483C113.381 45.3109 112.328 44.258 111.569 42.8875L111.394 42.9844C112.171 44.3874 113.251 45.4678 114.634 46.2237L114.73 46.0483ZM111.569 42.8875C110.811 41.5181 110.43 39.914 110.43 38.072H110.23C110.23 39.942 110.617 41.5806 111.394 42.9844L111.569 42.8875ZM110.43 38.072C110.43 36.2296 110.8 34.6251 111.538 33.2554L111.362 33.1606C110.606 34.5642 110.23 36.2024 110.23 38.072H110.43ZM111.537 33.2564C112.296 31.886 113.349 30.8331 114.698 30.0957L114.602 29.9203C113.219 30.6762 112.139 31.7566 111.362 33.1595L111.537 33.2564ZM114.698 30.0957C116.046 29.3582 117.597 28.988 119.354 28.988V28.788C117.568 28.788 115.984 29.1645 114.602 29.9203L114.698 30.0957ZM119.354 28.988C121.067 28.988 122.587 29.3475 123.914 30.064L124.009 29.888C122.649 29.1538 121.096 28.788 119.354 28.788V28.988ZM123.914 30.064C125.241 30.7802 126.273 31.8011 127.01 33.1286L127.185 33.0314C126.429 31.6709 125.37 30.6225 124.009 29.888L123.914 30.064ZM127.011 33.1296C127.769 34.4563 128.15 36.0066 128.15 37.784H128.35C128.35 35.9774 127.962 34.3917 127.184 33.0304L127.011 33.1296ZM122.75 36.344C122.75 35.3799 122.42 34.6043 121.755 34.0284L121.624 34.1796C122.24 34.713 122.55 35.4308 122.55 36.344H122.75ZM121.755 34.0284C121.094 33.4559 120.27 33.172 119.29 33.172V33.372C120.229 33.372 121.005 33.6428 121.624 34.1796L121.755 34.0284ZM119.29 33.172C118.351 33.172 117.549 33.4453 116.89 33.9952L117.018 34.1488C117.638 33.632 118.393 33.372 119.29 33.372V33.172ZM116.888 33.9963C116.248 34.5483 115.855 35.3293 115.703 36.329L115.9 36.359C116.047 35.396 116.422 34.6623 117.019 34.1477L116.888 33.9963ZM115.802 36.444H122.65V36.244H115.802V36.444ZM122.995 24.4758L115.283 27.7078L115.36 27.8922L123.072 24.6602L122.995 24.4758ZM115.422 27.8V24.024H115.222V27.8H115.422ZM115.365 24.1141L123.077 20.4021L122.99 20.2219L115.278 23.9339L115.365 24.1141ZM122.934 20.312V24.568H123.134V20.312H122.934ZM159.2 30.968L159.129 31.0376L159.129 31.0381L159.2 30.968ZM161.184 47V47.1H161.284V47H161.184ZM155.744 47H155.644V47.1H155.744V47ZM154.816 34.648L154.743 34.7163L154.746 34.7187L154.816 34.648ZM149.792 34.648L149.72 34.5785L149.72 34.5785L149.792 34.648ZM148.896 47V47.1H148.996V47H148.896ZM143.456 47H143.356V47.1H143.456V47ZM142.528 34.648L142.455 34.7163L142.458 34.7187L142.528 34.648ZM137.504 34.648L137.432 34.5785L137.432 34.5785L137.504 34.648ZM136.608 47V47.1H136.708V47H136.608ZM131.136 47H131.036V47.1H131.136V47ZM131.136 29.144V29.044H131.036V29.144H131.136ZM136.608 29.144H136.708V29.044H136.608V29.144ZM136.608 31.384H136.508V31.6863L136.689 31.4436L136.608 31.384ZM138.784 29.624L138.827 29.7143L138.829 29.7134L138.784 29.624ZM145.408 29.816L145.36 29.9036L145.361 29.904L145.408 29.816ZM147.904 32.28L147.817 32.3289L147.899 32.4756L147.989 32.3333L147.904 32.28ZM153.92 29.052C156.117 29.052 157.849 29.7166 159.129 31.0376L159.272 30.8984C157.949 29.5314 156.161 28.852 153.92 28.852V29.052ZM159.129 31.0381C160.429 32.3588 161.084 34.1976 161.084 36.568H161.284C161.284 34.1598 160.617 32.2652 159.272 30.8979L159.129 31.0381ZM161.084 36.568V47H161.284V36.568H161.084ZM161.184 46.9H155.744V47.1H161.184V46.9ZM155.844 47V37.304H155.644V47H155.844ZM155.844 37.304C155.844 36.1342 155.53 35.2201 154.887 34.5773L154.746 34.7187C155.34 35.3132 155.644 36.1698 155.644 37.304H155.844ZM154.889 34.5798C154.269 33.9152 153.408 33.588 152.32 33.588V33.788C153.366 33.788 154.169 34.1008 154.743 34.7162L154.889 34.5798ZM152.32 33.588C151.232 33.588 150.362 33.9152 149.72 34.5785L149.864 34.7175C150.46 34.1008 151.275 33.788 152.32 33.788V33.588ZM149.72 34.5785C149.1 35.2215 148.796 36.1351 148.796 37.304H148.996C148.996 36.1689 149.29 35.3119 149.864 34.7175L149.72 34.5785ZM148.796 37.304V47H148.996V37.304H148.796ZM148.896 46.9H143.456V47.1H148.896V46.9ZM143.556 47V37.304H143.356V47H143.556ZM143.556 37.304C143.556 36.1342 143.242 35.2201 142.599 34.5773L142.458 34.7187C143.052 35.3132 143.356 36.1698 143.356 37.304H143.556ZM142.601 34.5798C141.981 33.9152 141.12 33.588 140.032 33.588V33.788C141.078 33.788 141.881 34.1008 142.455 34.7162L142.601 34.5798ZM140.032 33.588C138.944 33.588 138.074 33.9152 137.432 34.5785L137.576 34.7175C138.172 34.1008 138.987 33.788 140.032 33.788V33.588ZM137.432 34.5785C136.812 35.2215 136.508 36.1351 136.508 37.304H136.708C136.708 36.1689 137.002 35.3119 137.576 34.7175L137.432 34.5785ZM136.508 37.304V47H136.708V37.304H136.508ZM136.608 46.9H131.136V47.1H136.608V46.9ZM131.236 47V29.144H131.036V47H131.236ZM131.136 29.244H136.608V29.044H131.136V29.244ZM136.508 29.144V31.384H136.708V29.144H136.508ZM136.689 31.4436C137.233 30.7109 137.945 30.1344 138.827 29.7143L138.741 29.5337C137.832 29.9669 137.093 30.5637 136.528 31.3244L136.689 31.4436ZM138.829 29.7134C139.709 29.2732 140.707 29.052 141.824 29.052V28.852C140.68 28.852 139.651 29.0788 138.74 29.5346L138.829 29.7134ZM141.824 29.052C143.154 29.052 144.331 29.3367 145.36 29.9036L145.457 29.7284C144.395 29.1433 143.183 28.852 141.824 28.852V29.052ZM145.361 29.904C146.411 30.4709 147.229 31.2786 147.817 32.3289L147.992 32.2311C147.385 31.1481 146.539 30.3131 145.456 29.728L145.361 29.904ZM147.989 32.3333C148.598 31.3665 149.429 30.5776 150.483 29.9665L150.382 29.7935C149.302 30.4197 148.448 31.2308 147.82 32.2267L147.989 32.3333ZM150.483 29.9665C151.534 29.3569 152.679 29.052 153.92 29.052V28.852C152.644 28.852 151.464 29.1658 150.382 29.7935L150.483 29.9665ZM165.747 46.28L165.678 46.352L165.681 46.3545L165.747 46.28ZM165.747 40.96L165.679 40.8868L165.678 40.888L165.747 40.96ZM171.587 40.96L171.518 41.032L171.519 41.0332L171.587 40.96ZM171.587 46.28L171.655 46.3533L171.655 46.3532L171.587 46.28ZM168.707 47.22C167.528 47.22 166.566 46.8799 165.814 46.2055L165.681 46.3545C166.475 47.0668 167.487 47.42 168.707 47.42V47.22ZM165.817 46.208C165.09 45.5069 164.727 44.6529 164.727 43.64H164.527C164.527 44.7071 164.912 45.6131 165.678 46.352L165.817 46.208ZM164.727 43.64C164.727 42.5996 165.09 41.7325 165.817 41.032L165.678 40.888C164.911 41.6275 164.527 42.547 164.527 43.64H164.727ZM165.815 41.0332C166.568 40.3328 167.529 39.98 168.707 39.98V39.78C167.486 39.78 166.474 40.1472 165.679 40.8868L165.815 41.0332ZM168.707 39.98C169.858 39.98 170.792 40.3324 171.518 41.032L171.657 40.888C170.889 40.1476 169.903 39.78 168.707 39.78V39.98ZM171.519 41.0332C172.272 41.7341 172.647 42.6008 172.647 43.64H172.847C172.847 42.5459 172.449 41.6259 171.655 40.8868L171.519 41.0332ZM172.647 43.64C172.647 44.6517 172.273 45.5054 171.519 46.2068L171.655 46.3532C172.449 45.6146 172.847 44.7083 172.847 43.64H172.647ZM171.519 46.2067C170.794 46.8803 169.86 47.22 168.707 47.22V47.42C169.902 47.42 170.887 47.0664 171.655 46.3533L171.519 46.2067Z" fill="black"/>
<path d="M183.1 47.256C181.542 47.256 180.156 46.9893 178.94 46.456C177.724 45.9227 176.764 45.1973 176.06 44.28C175.356 43.3413 174.961 42.296 174.876 41.144H180.284C180.348 41.7627 180.636 42.264 181.148 42.648C181.66 43.032 182.289 43.224 183.036 43.224C183.718 43.224 184.241 43.096 184.604 42.84C184.988 42.5627 185.18 42.2107 185.18 41.784C185.18 41.272 184.913 40.8987 184.38 40.664C183.846 40.408 182.982 40.1307 181.788 39.832C180.508 39.5333 179.441 39.224 178.588 38.904C177.734 38.5627 176.998 38.04 176.38 37.336C175.761 36.6107 175.452 35.64 175.452 34.424C175.452 33.4 175.729 32.472 176.284 31.64C176.86 30.7867 177.692 30.1147 178.78 29.624C179.889 29.1333 181.201 28.888 182.716 28.888C184.956 28.888 186.716 29.4427 187.996 30.552C189.297 31.6613 190.044 33.1333 190.236 34.968H185.18C185.094 34.3493 184.817 33.8587 184.348 33.496C183.9 33.1333 183.302 32.952 182.556 32.952C181.916 32.952 181.425 33.08 181.084 33.336C180.742 33.5707 180.572 33.9013 180.572 34.328C180.572 34.84 180.838 35.224 181.372 35.48C181.926 35.736 182.78 35.992 183.932 36.248C185.254 36.5893 186.332 36.9307 187.164 37.272C187.996 37.592 188.721 38.1253 189.34 38.872C189.98 39.5973 190.31 40.5787 190.332 41.816C190.332 42.8613 190.033 43.8 189.436 44.632C188.86 45.4427 188.017 46.0827 186.908 46.552C185.82 47.0213 184.55 47.256 183.1 47.256ZM210.511 37.784C210.511 38.296 210.479 38.8293 210.415 39.384H198.031C198.117 40.4933 198.469 41.3467 199.087 41.944C199.727 42.52 200.506 42.808 201.423 42.808C202.789 42.808 203.738 42.232 204.271 41.08H210.095C209.797 42.2533 209.253 43.3093 208.463 44.248C207.695 45.1867 206.725 45.9227 205.551 46.456C204.378 46.9893 203.066 47.256 201.615 47.256C199.866 47.256 198.309 46.8827 196.943 46.136C195.578 45.3893 194.511 44.3227 193.743 42.936C192.975 41.5493 192.591 39.928 192.591 38.072C192.591 36.216 192.965 34.5947 193.711 33.208C194.479 31.8213 195.546 30.7547 196.911 30.008C198.277 29.2613 199.845 28.888 201.615 28.888C203.343 28.888 204.879 29.2507 206.223 29.976C207.567 30.7013 208.613 31.736 209.359 33.08C210.127 34.424 210.511 35.992 210.511 37.784ZM204.911 36.344C204.911 35.4053 204.591 34.6587 203.951 34.104C203.311 33.5493 202.511 33.272 201.551 33.272C200.634 33.272 199.855 33.5387 199.215 34.072C198.597 34.6053 198.213 35.3627 198.063 36.344H204.911ZM231.03 29.144V47H225.558V44.568C225.003 45.3573 224.246 45.9973 223.286 46.488C222.347 46.9573 221.302 47.192 220.15 47.192C218.785 47.192 217.579 46.8933 216.534 46.296C215.489 45.6773 214.678 44.792 214.102 43.64C213.526 42.488 213.238 41.1333 213.238 39.576V29.144H218.678V38.84C218.678 40.0347 218.987 40.9627 219.606 41.624C220.225 42.2853 221.057 42.616 222.102 42.616C223.169 42.616 224.011 42.2853 224.63 41.624C225.249 40.9627 225.558 40.0347 225.558 38.84V29.144H231.03ZM244.689 40.28H259.185V47H235.377V40.76L249.777 20.024H235.377V13.304H259.185V19.544L244.689 40.28ZM289.794 33.176C289.794 33.944 289.746 34.744 289.65 35.576H271.074C271.202 37.24 271.73 38.52 272.658 39.416C273.618 40.28 274.786 40.712 276.162 40.712C278.21 40.712 279.634 39.848 280.434 38.12H289.17C288.722 39.88 287.906 41.464 286.722 42.872C285.57 44.28 284.114 45.384 282.354 46.184C280.594 46.984 278.626 47.384 276.45 47.384C273.826 47.384 271.49 46.824 269.442 45.704C267.394 44.584 265.794 42.984 264.642 40.904C263.49 38.824 262.914 36.392 262.914 33.608C262.914 30.824 263.474 28.392 264.594 26.312C265.746 24.232 267.346 22.632 269.394 21.512C271.442 20.392 273.794 19.832 276.45 19.832C279.042 19.832 281.346 20.376 283.362 21.464C285.378 22.552 286.946 24.104 288.066 26.12C289.218 28.136 289.794 30.488 289.794 33.176ZM281.394 31.016C281.394 29.608 280.914 28.488 279.954 27.656C278.994 26.824 277.794 26.408 276.354 26.408C274.978 26.408 273.81 26.808 272.85 27.608C271.922 28.408 271.346 29.544 271.122 31.016H281.394ZM281.97 13.352L270.402 18.2V12.536L281.97 6.968V13.352Z" fill="#F13D3C"/>
</svg>
