<svg width="51" height="50" viewBox="0 0 51 50" fill="none" xmlns="http://www.w3.org/2000/svg">
<path d="M18.8435 45.8334C19.9965 45.8334 20.9312 44.9007 20.9312 43.7501C20.9312 42.5995 19.9965 41.6667 18.8435 41.6667C17.6905 41.6667 16.7559 42.5995 16.7559 43.7501C16.7559 44.9007 17.6905 45.8334 18.8435 45.8334Z" stroke="white" stroke-width="2" stroke-linecap="round" stroke-linejoin="round"/>
<path d="M41.8077 45.8334C42.9606 45.8334 43.8953 44.9007 43.8953 43.7501C43.8953 42.5995 42.9606 41.6667 41.8077 41.6667C40.6547 41.6667 39.72 42.5995 39.72 43.7501C39.72 44.9007 40.6547 45.8334 41.8077 45.8334Z" stroke="white" stroke-width="2" stroke-linecap="round" stroke-linejoin="round"/>
<path d="M2.14185 2.08337H10.4926L16.0876 29.9792C16.2785 30.9384 16.8014 31.8 17.5647 32.4132C18.328 33.0264 19.2832 33.3521 20.2629 33.3334H40.5552C41.535 33.3521 42.4901 33.0264 43.2534 32.4132C44.0168 31.8 44.5397 30.9384 44.7306 29.9792L48.0709 12.5H12.5803" stroke="white" stroke-width="2" stroke-linecap="round" stroke-linejoin="round"/>
</svg>
