<svg width="368" height="256" viewBox="0 0 368 256" fill="none" xmlns="http://www.w3.org/2000/svg">
<path d="M16.3913 98.2429C16.7432 119.864 24.8627 122.204 34.8338 119.949C46.2247 117.373 55.5739 109.299 60.1818 98.6161L63.3596 91.2486C65.4723 86.3506 65.5434 80.818 63.5574 75.8679C61.5713 70.9177 57.6907 66.9555 52.7693 64.8529H52.7693C50.3325 63.8118 47.7134 63.2586 45.0618 63.2248C42.4101 63.191 39.7778 63.6774 37.315 64.6561C34.8522 65.6348 32.6072 67.0868 30.7082 68.929C28.8092 70.7712 27.2934 72.9676 26.2473 75.3928C16.0215 79.3907 14.0019 87.6673 16.3913 98.2429Z" fill="#2F2E41"/>
<path d="M80.5071 54.7274L83.5676 49.5732C83.9413 48.9438 84.167 48.2384 84.2276 47.5098C84.2883 46.7812 84.1824 46.0484 83.9179 45.3664C83.6534 44.6844 83.2371 44.0708 82.7003 43.5717C82.1635 43.0727 81.5201 42.701 80.8185 42.4848C80.0778 42.2565 79.2931 42.2077 78.5297 42.3425C77.7663 42.4772 77.0463 42.7916 76.4297 43.2595C75.8131 43.7273 75.3178 44.335 74.9851 45.032C74.6523 45.729 74.4918 46.495 74.5168 47.2662L74.6967 52.8066L60.314 92.0348L68.1571 93.6645L80.5071 54.7274Z" fill="#9F616A"/>
<path d="M4.8405 151.432L1.07348 156.099C0.613477 156.669 0.289133 157.336 0.124787 158.048C-0.0395598 158.761 -0.0396433 159.501 0.124542 160.214C0.288727 160.926 0.612918 161.592 1.07279 162.163C1.53267 162.733 2.11629 163.192 2.77987 163.505C3.48027 163.836 4.25 163.996 5.02492 163.971C5.79984 163.945 6.55751 163.736 7.23477 163.361C7.91203 162.985 8.48927 162.454 8.91838 161.811C9.3475 161.168 9.61606 160.433 9.70168 159.666L10.3168 154.157L30.1682 117.368L22.6383 114.643L4.8405 151.432Z" fill="#9F616A"/>
<path d="M28.1143 190.264L28.6687 196.893L28.7988 198.44L65.6677 194.911C66.9385 194.768 68.1576 194.329 69.226 193.629C70.2943 192.93 71.1816 191.989 71.8159 190.884C72.4502 189.779 72.8136 188.54 72.8764 187.269C72.9392 185.997 72.6998 184.729 72.1776 183.567L60.2873 158.163L56.1801 149.388L38.3823 145.3C23.7059 156.48 36.9105 168.818 53.5241 181.299C54.1744 181.789 54.8316 182.28 55.4955 182.77L28.1143 190.264Z" fill="#2F2E41"/>
<path d="M15.6913 213.219C16.1405 213.283 16.5987 213.23 17.0219 213.067C17.4451 212.904 17.8191 212.636 18.1081 212.288L30.1681 197.758L29.4836 190.946L25.3715 188.49C25.0351 188.289 24.6588 188.164 24.2688 188.122C23.8787 188.081 23.4843 188.124 23.1128 188.25C22.7413 188.375 22.4018 188.58 22.1177 188.849C21.8337 189.118 21.6119 189.446 21.4679 189.809L13.602 209.641C13.4551 210.011 13.3944 210.41 13.4245 210.807C13.4546 211.204 13.5746 211.589 13.7757 211.934C13.9767 212.278 14.2535 212.572 14.5853 212.795C14.9171 213.017 15.2952 213.162 15.6913 213.219Z" fill="#2F2E41"/>
<path opacity="0.2" d="M26.0605 188.902L26.7451 197.077L28.6686 196.893L63.614 193.548C64.8848 193.406 66.1039 192.967 67.1723 192.267C68.2406 191.567 69.1279 190.626 69.7622 189.521C70.3965 188.416 70.7599 187.177 70.8227 185.906C70.8856 184.635 70.6461 183.367 70.1239 182.205L60.2872 160.288V158.163L56.18 149.388L38.3821 145.3C23.7058 156.48 36.9104 168.818 53.524 181.299L53.4418 181.408L26.0605 188.902Z" fill="black"/>
<path d="M12.2684 210.494C12.7177 210.557 13.1758 210.505 13.599 210.342C14.0222 210.179 14.3963 209.911 14.6853 209.563L26.7452 195.033L26.0607 188.221L21.9486 185.765C21.6122 185.564 21.236 185.439 20.8459 185.397C20.4559 185.356 20.0614 185.399 19.6899 185.525C19.3185 185.65 18.9789 185.854 18.6949 186.124C18.4108 186.393 18.1891 186.721 18.045 187.084L10.1792 206.916C10.0322 207.286 9.97156 207.685 10.0016 208.082C10.0317 208.479 10.1518 208.864 10.3528 209.208C10.5539 209.553 10.8307 209.847 11.1625 210.07C11.4942 210.292 11.8724 210.437 12.2684 210.494Z" fill="#2F2E41"/>
<path d="M24.6914 187.539L25.3759 195.715L62.2448 192.185C63.5156 192.042 64.7347 191.603 65.8031 190.904C66.8714 190.204 67.7589 189.264 68.3934 188.159C69.028 187.054 69.3917 185.815 69.4549 184.544C69.5182 183.273 69.2793 182.005 68.7576 180.843L58.918 158.926V146.663L34.9594 142.575C19.7055 154.194 34.568 167.065 52.0727 180.045L24.6914 187.539Z" fill="#2F2E41"/>
<path d="M47.9657 91.4795C53.6366 91.4795 58.2337 86.9042 58.2337 81.2604C58.2337 75.6165 53.6366 71.0413 47.9657 71.0413C42.2949 71.0413 37.6978 75.6165 37.6978 81.2604C37.6978 86.9042 42.2949 91.4795 47.9657 91.4795Z" fill="#9F616A"/>
<path d="M34.2749 98.2925L48.6501 107.83L60.9716 105.105L54.1263 98.2925V88.0734L43.1738 87.3921C42.9439 91.4729 40.5943 95.2072 34.2749 98.2925Z" fill="#9F616A"/>
<path d="M32.2215 145.982L58.9182 149.388L65.079 120.774C67.9411 113.179 66.299 106.469 61 100.477C60.7974 99.4681 60.2575 98.5577 59.4684 97.8937C58.6793 97.2298 57.6875 96.8514 56.6547 96.8202L54.1265 96.9298C54.4125 105.965 47.7237 103.789 37.6977 96.2485L36.4871 96.61C34.9221 97.0773 33.5784 98.0898 32.702 99.4622C31.8256 100.835 31.4751 102.475 31.7145 104.084L32.8185 111.5C33.2866 114.44 34.0137 117.333 34.9915 120.147C37.7286 128.288 36.7505 136.906 32.2215 145.982Z" fill="#72463B"/>
<path d="M19.8999 115.324L32.2215 119.412L37.6977 99.655L35.8425 98.8157C34.3043 98.1199 32.5578 98.0325 30.9573 98.5713C29.3568 99.1101 28.0222 100.235 27.2244 101.717L19.8999 115.324Z" fill="#72463B"/>
<path d="M56.1802 96.93L63.0257 104.424L71.2398 91.4795L60.9717 86.0295L56.1802 96.93Z" fill="#72463B"/>
<path d="M35.9868 78.1948C42.4392 80.6163 49.3252 80.3652 56.5228 78.1948V70.0195H35.9868V78.1948Z" fill="#2F2E41"/>
<path d="M356.228 218.531L349.149 221.467L301.957 157.474L267.743 222.641L258.895 220.88L284.85 131.054H314.935L356.228 218.531Z" fill="#2F2E41"/>
<path d="M365.725 233.46C365.333 233.567 364.923 233.595 364.519 233.543C364.116 233.491 363.727 233.361 363.374 233.159L348.446 224.604C348.043 224.373 347.698 224.053 347.44 223.669C347.181 223.284 347.015 222.846 346.954 222.387C346.893 221.928 346.939 221.461 347.088 221.023C347.238 220.585 347.486 220.187 347.815 219.86L349.149 218.532L356.228 217.945L367.049 228.284C367.443 228.66 367.729 229.133 367.879 229.655C368.029 230.177 368.037 230.73 367.902 231.256C367.768 231.782 367.495 232.263 367.113 232.651C366.73 233.038 366.251 233.317 365.725 233.46Z" fill="#2F2E41"/>
<path d="M249.987 235.808C250.38 235.915 250.789 235.943 251.193 235.891C251.596 235.84 251.985 235.709 252.338 235.507L267.267 226.953C267.67 226.722 268.014 226.402 268.273 226.017C268.531 225.633 268.697 225.194 268.758 224.735C268.819 224.276 268.773 223.81 268.624 223.372C268.475 222.933 268.226 222.535 267.897 222.208L266.563 220.88L259.484 220.293L248.663 230.632C248.269 231.008 247.983 231.481 247.833 232.004C247.683 232.526 247.675 233.078 247.81 233.604C247.944 234.131 248.217 234.612 248.599 234.999C248.982 235.386 249.461 235.666 249.987 235.808Z" fill="#2F2E41"/>
<path d="M264.793 37.7064L261.844 39.4677L255.732 29.5825C255.356 28.9754 255.133 28.2873 255.081 27.5763C255.029 26.8654 255.149 26.1523 255.432 25.4974C255.714 24.8424 256.151 24.2647 256.705 23.813C257.26 23.3613 257.915 23.0489 258.616 22.902C259.239 22.7714 259.883 22.775 260.505 22.9124C261.126 23.0499 261.711 23.3181 262.22 23.6989C262.729 24.0798 263.151 24.5647 263.456 25.1209C263.761 25.6771 263.944 26.2919 263.991 26.924L264.793 37.7064Z" fill="#FFB9B9"/>
<path d="M346.499 114.668L347.723 111.468L358.668 115.475C359.34 115.722 359.943 116.125 360.426 116.652C360.909 117.178 361.257 117.813 361.442 118.501C361.627 119.19 361.642 119.913 361.487 120.609C361.332 121.305 361.012 121.954 360.552 122.501C360.143 122.987 359.635 123.38 359.061 123.655C358.487 123.929 357.861 124.079 357.224 124.093C356.587 124.107 355.955 123.985 355.369 123.736C354.784 123.486 354.259 123.115 353.829 122.648L346.499 114.668Z" fill="#FFB9B9"/>
<path d="M300.187 72.9322C305.074 72.9322 309.036 68.9894 309.036 64.1258C309.036 59.2621 305.074 55.3193 300.187 55.3193C295.3 55.3193 291.339 59.2621 291.339 64.1258C291.339 68.9894 295.3 72.9322 300.187 72.9322Z" fill="#FFB9B9"/>
<path d="M307.856 82.9127H295.468V69.4096L306.087 68.2354L307.856 82.9127Z" fill="#FFB9B9"/>
<path d="M316.705 134.577H283.08C284.266 115.906 285.205 97.8615 283.08 87.6096L285.035 78.2696C285.306 76.9755 286.056 75.8303 287.137 75.0616C288.218 74.293 289.549 73.9573 290.867 74.1212L295.468 74.6935C298.584 80.1449 302.349 80.0923 306.676 75.2806H312.218C312.957 75.2806 313.688 75.4273 314.369 75.7121C315.05 75.9968 315.668 76.4139 316.185 76.939C316.702 77.464 317.109 78.0865 317.381 78.7699C317.654 79.4533 317.787 80.184 317.772 80.9191C319.216 87.4976 319.696 94.2492 319.198 100.964L316.705 134.577Z" fill="#3F3D56"/>
<path d="M260.074 37.7064L264.793 35.3582L290.159 77.042L283.081 87.6095L260.074 37.7064Z" fill="#3F3D56"/>
<path d="M346.566 116.338L350.599 112.952L329.169 83.0664C327.072 80.1426 324.182 77.8738 320.837 76.5258C317.491 75.1778 313.829 74.8064 310.28 75.4551L309.604 75.5786L317.707 89.6917L328.379 97.7338L346.566 116.338Z" fill="#3F3D56"/>
<path d="M310.421 58.9273C310.421 58.9273 312.075 55.307 307.776 53.6614C307.776 53.6614 304.138 47.7373 296.863 51.6867C296.863 51.6867 291.902 53.6614 291.902 58.9273C291.902 64.1931 290.249 65.1805 290.249 65.1805C290.249 65.1805 292.711 62.6664 293.373 60.6917C294.034 58.717 299.178 58.269 301.162 60.2437C303.146 62.2184 308.106 61.8893 308.106 61.8893L307.776 69.1298C307.776 69.1298 309.429 64.8513 310.09 64.8513C310.752 64.8513 311.413 58.9273 310.421 58.9273Z" fill="#2F2E41"/>
<path d="M309.604 256C339.506 256 363.746 254.743 363.746 253.193C363.746 251.643 339.506 250.387 309.604 250.387C279.702 250.387 255.462 251.643 255.462 253.193C255.462 254.743 279.702 256 309.604 256Z" fill="#E6E6E6"/>
<path d="M39.2805 254.677C55.0858 254.677 67.8985 254.013 67.8985 253.194C67.8985 252.374 55.0858 251.71 39.2805 251.71C23.4753 251.71 10.6626 252.374 10.6626 253.194C10.6626 254.013 23.4753 254.677 39.2805 254.677Z" fill="#E6E6E6"/>
<path d="M257.931 49.3769L83.9535 64.8951C83.0992 64.9703 82.2499 64.7052 81.5918 64.158C80.9336 63.6108 80.5205 62.8261 80.4429 61.9761L76.5751 19.0251C76.4996 18.1749 76.7659 17.3296 77.3158 16.6747C77.8656 16.0197 78.6541 15.6085 79.5081 15.5313L253.485 0.013028C254.34 -0.0621614 255.189 0.20294 255.847 0.750178C256.505 1.29742 256.918 2.08211 256.996 2.93212L260.864 45.883C260.939 46.7332 260.673 47.5785 260.123 48.2335C259.573 48.8885 258.785 49.2997 257.931 49.3769Z" fill="#72463B"/>
<path d="M104.586 52.0422C112.089 52.0422 118.172 45.9886 118.172 38.5211C118.172 31.0536 112.089 25 104.586 25C97.0826 25 91 31.0536 91 38.5211C91 45.9886 97.0826 52.0422 104.586 52.0422Z" fill="#F13D3C"/>
<path d="M134.726 26.4358C134.129 26.4902 133.578 26.7782 133.194 27.2367C132.81 27.6951 132.624 28.2865 132.678 28.8811C132.731 29.4756 133.019 30.0247 133.479 30.4079C133.939 30.7911 134.533 30.977 135.131 30.9248L241.45 21.4414C241.746 21.4154 242.035 21.3315 242.299 21.1945C242.562 21.0574 242.797 20.8699 242.987 20.6428C243.178 20.4156 243.323 20.1532 243.412 19.8705C243.501 19.5878 243.533 19.2905 243.506 18.9955C243.48 18.7005 243.395 18.4135 243.257 18.1511C243.119 17.8887 242.93 17.656 242.701 17.4662C242.473 17.2765 242.209 17.1334 241.925 17.0453C241.641 16.9571 241.342 16.9255 241.046 16.9524L134.726 26.4358Z" fill="white"/>
<path d="M135.939 39.9028C135.642 39.9287 135.353 40.0125 135.089 40.1495C134.825 40.2865 134.591 40.474 134.4 40.7012C134.209 40.9284 134.065 41.1908 133.976 41.4736C133.887 41.7563 133.855 42.0537 133.881 42.3489C133.908 42.644 133.992 42.931 134.131 43.1935C134.269 43.4559 134.458 43.6887 134.686 43.8785C134.915 44.0682 135.179 44.2112 135.463 44.2993C135.747 44.3874 136.046 44.4189 136.343 44.3918L242.662 34.9085C242.959 34.8825 243.247 34.7985 243.511 34.6615C243.775 34.5244 244.009 34.337 244.2 34.1098C244.391 33.8826 244.535 33.6202 244.624 33.3375C244.713 33.0549 244.745 32.7575 244.718 32.4625C244.692 32.1675 244.607 31.8806 244.469 31.6182C244.331 31.3558 244.142 31.123 243.914 30.9333C243.685 30.7435 243.421 30.6005 243.137 30.5123C242.853 30.4241 242.554 30.3926 242.258 30.4194L135.939 39.9028Z" fill="white"/>
<path d="M102.697 43C102.385 43.0005 102.082 42.9048 101.833 42.7273L101.818 42.7163L98.5659 40.3525C98.4153 40.2428 98.2889 40.106 98.1939 39.9499C98.099 39.7937 98.0373 39.6214 98.0124 39.4426C97.9876 39.2638 98 39.0821 98.0491 38.9079C98.0981 38.7337 98.1828 38.5704 98.2983 38.4273C98.4137 38.2842 98.5577 38.1641 98.7221 38.0738C98.8864 37.9836 99.0678 37.925 99.2559 37.9014C99.4441 37.8778 99.6353 37.8896 99.8186 37.9362C100.002 37.9828 100.174 38.0633 100.324 38.173L102.431 39.7078L107.408 33.5375C107.524 33.3944 107.668 33.2744 107.832 33.1842C107.996 33.094 108.178 33.0354 108.366 33.0118C108.554 32.9882 108.745 33 108.928 33.0466C109.111 33.0932 109.283 33.1736 109.434 33.2833L109.434 33.2836L109.403 33.3244L109.435 33.2836C109.739 33.5054 109.937 33.8326 109.988 34.1935C110.038 34.5544 109.935 34.9194 109.702 35.2085L103.848 42.4629C103.712 42.63 103.538 42.7653 103.339 42.8581C103.139 42.951 102.92 42.999 102.698 42.9984L102.697 43Z" fill="white"/>
</svg>
